name ./resultDataOpenSim/trcMotMarkerGrf/sub09/grf-05-01.mot
datacolumns 19
datarows 22
range 0.52000000 0.60400000
endheader

                time	     ground_force_vx	     ground_force_vy	     ground_force_vz	     ground_force_px	     ground_force_py	     ground_force_pz	   l_ground_force_vx	   l_ground_force_vy	   l_ground_force_vz	   l_ground_force_px	   l_ground_force_py	   l_ground_force_pz	     ground_torque_x	     ground_torque_y	     ground_torque_z	   l_ground_torque_x	   l_ground_torque_y	   l_ground_torque_z	
          0.52000000	         24.10106683	        361.42621108	        -10.72187021	         -0.70116861	          0.00000000	          0.11275822	          0.00000000	          0.00000000	          0.00000000	          0.00000000	          0.00000000	          0.00000000	          0.00000000	          1.28996427	          0.00000000	          0.00000000	          0.00000000	          0.00000000	
          0.52400000	         25.45286138	        367.65016974	        -10.27667106	         -0.69997153	          0.00000000	          0.11299203	          0.00000000	          0.00000000	          0.00000000	          0.00000000	          0.00000000	          0.00000000	          0.00000000	          1.57597045	          0.00000000	          0.00000000	          0.00000000	          0.00000000	
          0.52800000	         26.10827551	        375.03166939	         -9.76268481	         -0.69859964	          0.00000000	          0.11309938	          0.00000000	          0.00000000	          0.00000000	          0.00000000	          0.00000000	          0.00000000	          0.00000000	          1.90137247	          0.00000000	          0.00000000	          0.00000000	          0.00000000	
          0.53200000	         26.09080195	        383.40581339	         -9.41976779	         -0.69708565	          0.00000000	          0.11311162	          0.00000000	          0.00000000	          0.00000000	          0.00000000	          0.00000000	          0.00000000	          0.00000000	          2.23058037	          0.00000000	          0.00000000	          0.00000000	          0.00000000	
          0.53600000	         25.58897978	        392.56687105	         -9.42862919	         -0.69548803	          0.00000000	          0.11306875	          0.00000000	          0.00000000	          0.00000000	          0.00000000	          0.00000000	          0.00000000	          0.00000000	          2.53307558	          0.00000000	          0.00000000	          0.00000000	          0.00000000	
          0.54000000	         24.91136881	        402.31031011	         -9.87990338	         -0.69386068	          0.00000000	          0.11301456	          0.00000000	          0.00000000	          0.00000000	          0.00000000	          0.00000000	          0.00000000	          0.00000000	          2.78913828	          0.00000000	          0.00000000	          0.00000000	          0.00000000	
          0.54400000	         24.41177777	        412.45774415	        -10.76479038	         -0.69223725	          0.00000000	          0.11298479	          0.00000000	          0.00000000	          0.00000000	          0.00000000	          0.00000000	          0.00000000	          0.00000000	          2.99293313	          0.00000000	          0.00000000	          0.00000000	          0.00000000	
          0.54800000	         24.40666987	        422.86537148	        -11.98854891	         -0.69063947	          0.00000000	          0.11299891	          0.00000000	          0.00000000	          0.00000000	          0.00000000	          0.00000000	          0.00000000	          0.00000000	          3.15212391	          0.00000000	          0.00000000	          0.00000000	          0.00000000	
          0.55200000	         25.10812149	        433.43287787	        -13.40135703	         -0.68909502	          0.00000000	          0.11306333	          0.00000000	          0.00000000	          0.00000000	          0.00000000	          0.00000000	          0.00000000	          0.00000000	          3.28412005	          0.00000000	          0.00000000	          0.00000000	          0.00000000	
          0.55600000	         26.58916420	        444.11299287	        -14.83876135	         -0.68762511	          0.00000000	          0.11317610	          0.00000000	          0.00000000	          0.00000000	          0.00000000	          0.00000000	          0.00000000	          0.00000000	          3.40999532	          0.00000000	          0.00000000	          0.00000000	          0.00000000	
          0.56000000	         28.78700279	        454.90897396	        -16.16478918	         -0.68622405	          0.00000000	          0.11332991	          0.00000000	          0.00000000	          0.00000000	          0.00000000	          0.00000000	          0.00000000	          0.00000000	          3.54772001	          0.00000000	          0.00000000	          0.00000000	          0.00000000	
          0.56400000	         31.53881613	        465.86008212	        -17.30777905	         -0.68486299	          0.00000000	          0.11351571	          0.00000000	          0.00000000	          0.00000000	          0.00000000	          0.00000000	          0.00000000	          0.00000000	          3.70645135	          0.00000000	          0.00000000	          0.00000000	          0.00000000	
          0.56800000	         34.63924863	        477.02983501	        -18.27736229	         -0.68350603	          0.00000000	          0.11372431	          0.00000000	          0.00000000	          0.00000000	          0.00000000	          0.00000000	          0.00000000	          0.00000000	          3.88328004	          0.00000000	          0.00000000	          0.00000000	          0.00000000	
          0.57200000	         37.90500157	        488.50174367	        -19.15850386	         -0.68213215	          0.00000000	          0.11394231	          0.00000000	          0.00000000	          0.00000000	          0.00000000	          0.00000000	          0.00000000	          0.00000000	          4.06321022	          0.00000000	          0.00000000	          0.00000000	          0.00000000	
          0.57600000	         41.22732488	        500.36651774	        -20.08594993	         -0.68074667	          0.00000000	          0.11414442	          0.00000000	          0.00000000	          0.00000000	          0.00000000	          0.00000000	          0.00000000	          0.00000000	          4.22245637	          0.00000000	          0.00000000	          0.00000000	          0.00000000	
          0.58000000	         44.59585064	        512.69239812	        -21.20305246	         -0.67936340	          0.00000000	          0.11430102	          0.00000000	          0.00000000	          0.00000000	          0.00000000	          0.00000000	          0.00000000	          0.00000000	          4.33447379	          0.00000000	          0.00000000	          0.00000000	          0.00000000	
          0.58400000	         48.09175492	        525.49547626	        -22.61143272	         -0.67799171	          0.00000000	          0.11439394	          0.00000000	          0.00000000	          0.00000000	          0.00000000	          0.00000000	          0.00000000	          0.00000000	          4.37751070	          0.00000000	          0.00000000	          0.00000000	          0.00000000	
          0.58800000	         51.85633651	        538.72891008	        -24.32472866	         -0.67663819	          0.00000000	          0.11441728	          0.00000000	          0.00000000	          0.00000000	          0.00000000	          0.00000000	          0.00000000	          0.00000000	          4.34192551	          0.00000000	          0.00000000	          0.00000000	          0.00000000	
          0.59200000	         56.04141269	        552.29806278	        -26.24191186	         -0.67530710	          0.00000000	          0.11437149	          0.00000000	          0.00000000	          0.00000000	          0.00000000	          0.00000000	          0.00000000	          0.00000000	          4.23524872	          0.00000000	          0.00000000	          0.00000000	          0.00000000	
          0.59600000	         60.75661110	        566.09362133	        -28.15394615	         -0.67401402	          0.00000000	          0.11425253	          0.00000000	          0.00000000	          0.00000000	          0.00000000	          0.00000000	          0.00000000	          0.00000000	          4.08326194	          0.00000000	          0.00000000	          0.00000000	          0.00000000	
          0.60000000	         66.03530397	        580.01211385	        -29.79101273	         -0.67277450	          0.00000000	          0.11404822	          0.00000000	          0.00000000	          0.00000000	          0.00000000	          0.00000000	          0.00000000	          0.00000000	          3.92631366	          0.00000000	          0.00000000	          0.00000000	          0.00000000	
          0.60400000	         71.83136298	        593.94915676	        -30.89351049	         -0.67159745	          0.00000000	          0.11375285	          0.00000000	          0.00000000	          0.00000000	          0.00000000	          0.00000000	          0.00000000	          0.00000000	          3.81145253	          0.00000000	          0.00000000	          0.00000000	          0.00000000	
